<svg width="248" height="248" viewBox="0 0 248 248" fill="none" xmlns="http://www.w3.org/2000/svg">
<circle cx="124" cy="124" r="124" fill="#FFDD80"/>
<path d="M133.28 221.765C119.174 226.08 102.981 216.104 89.0144 197.451C94.1184 197.59 99.176 197.451 104.187 197.08C108.549 196.802 112.864 196.291 117.179 195.734C117.411 195.688 117.69 195.642 117.968 195.642C123.443 201.766 129.754 207.52 137.131 211.232C143.581 214.48 151.144 215.965 158.15 214.155C153.436 215.718 148.676 217.129 143.931 218.536L143.929 218.537C140.364 219.594 136.803 220.65 133.28 221.765Z" fill="#FFC832"/>
<path d="M165.992 187.011C164.786 189.888 163.394 192.394 161.909 194.435C159.635 197.498 157.083 199.539 154.392 200.235C153.51 200.467 152.629 200.56 151.654 200.56C148.685 200.56 145.437 199.539 142.003 197.544C139.73 196.245 137.363 194.482 134.95 192.347C142.653 190.584 150.262 188.357 157.779 185.712L158.488 185.453L158.489 185.453C160.673 184.656 162.888 183.849 165.064 182.928C165.945 182.604 166.871 182.233 167.798 181.862L167.8 181.862L167.802 181.861C167.245 183.763 166.642 185.434 165.992 187.011Z" fill="#FFC832"/>
<path fill-rule="evenodd" clip-rule="evenodd" d="M124 248C192.483 248 248 192.483 248 124C248 55.5167 192.483 0 124 0C55.5167 0 0 55.5167 0 124C0 192.483 55.5167 248 124 248ZM238.283 104.512C222.6 122.144 205.571 138.987 186.686 153.278C152.258 179.355 101.31 203.483 57.2304 190.723C45.584 187.336 34.216 180.005 30.04 168.637C27.6736 162.187 27.8128 155.042 29.576 148.406C31.1536 142.328 33.984 136.482 37.3248 131.192C38.856 128.733 40.6192 126.366 42.4288 124.093C42.7926 123.623 43.5573 122.876 44.4271 122.026L44.428 122.025C46.221 120.274 48.4599 118.087 48.5536 116.994C49.4352 107.157 52.2656 97.8304 56.6272 89.432C58.0656 62.984 67.9024 43.5888 84.1424 37.696C85.842 37.078 87.6012 36.3366 89.3902 35.5826C93.5111 33.846 97.7906 32.0425 101.867 31.5248C93.376 38.624 87.6224 47.1152 84.5136 57.8336C79.7808 74.1664 79.5488 91.6128 81.7296 108.363C83.9104 125.299 88.4576 142.096 95.0464 157.826C95.2296 158.246 95.4127 158.668 95.5964 159.092C96.204 160.495 96.8179 161.911 97.4592 163.301C97.4891 163.368 97.5586 163.539 97.656 163.778C98.1638 165.023 99.4288 168.126 99.7792 168.126C104.234 166.41 108.642 164.461 112.957 162.326C108.224 152.954 104.002 142.142 100.8 130.218C94.8144 107.899 93.4688 85.1632 97.0416 67.7168C98.8048 59.1792 102.424 45.7232 112.075 42.9856C116.112 41.8256 120.474 43.0784 124.093 45.2128C134.672 51.4304 142.606 62.0096 148.824 72.4032C156.341 84.9312 161.862 98.7584 165.621 112.864C166.178 114.906 166.688 116.947 167.152 118.989C171.05 114.534 174.808 109.941 178.427 105.301C174.901 93.2832 170.354 81.6368 164.368 70.5936C161.352 65.1184 158.104 59.6896 154.346 54.6784C169.89 61.4992 182.696 73.3776 190.723 88.272C198.054 77.3216 205.014 65.6752 209.515 53.1936C210.165 51.3842 210.721 49.5285 211.278 47.6727C189.981 23.3591 158.754 8 124 8C60.0144 8 8 60.0144 8 124C8 187.986 60.0144 240 124 240C187.986 240 240 187.986 240 124C240 117.597 239.768 110.776 238.283 104.512ZM42.5216 131.702C39.5984 138.013 37.6496 144.741 37.3248 151.19C37.0464 157.64 38.9024 163.579 42.6608 167.523C46.4192 171.514 51.848 173.741 57.7872 174.715C61.128 175.272 64.6544 175.411 68.2272 175.272C55.792 161.77 48.2288 143.766 48.2288 124C48.2288 122.979 48.2288 122.005 48.2752 120.984C46.1408 124.464 44.192 128.037 42.5216 131.702ZM129.754 61.2208C127.387 58.9936 124.882 56.8592 122.051 55.1888C119.267 53.5184 116.158 52.2656 112.91 52.08C116.112 52.5904 118.989 54.1216 121.494 56.024C124.046 57.88 126.274 60.2 128.315 62.5664C132.398 67.392 135.739 72.8208 138.57 78.4352C147.154 95.464 150.819 113.931 153.603 132.63C153.625 132.74 153.637 132.85 153.648 132.955C153.66 133.072 153.672 133.183 153.696 133.28C156.109 130.96 158.429 128.547 160.749 126.042C160.911 125.856 161.085 125.671 161.259 125.486L161.259 125.485C161.433 125.299 161.607 125.114 161.77 124.928C160.888 120.566 159.728 116.298 158.336 112.075C154.392 99.5472 149.102 87.4368 142.05 76.44C138.477 70.9648 134.486 65.768 129.754 61.2208Z" fill="#FFC832"/>
<circle cx="124" cy="124" r="120" stroke="#FFC832" stroke-width="8"/>
</svg>