<svg width="44" height="30" viewBox="0 0 44 30" fill="none" xmlns="http://www.w3.org/2000/svg">
    <path d="M23.9998 4C23.5998 4 23.2998 4 22.8998 4C22.2998 4 21.7998 4 21.1998 4.1C21.0998 4.1 20.9998 4.1 20.8998 4.1C20.2998 4.1 19.7998 4.2 19.1998 4.3C18.9998 4.3 18.8998 4.3 18.6998 4.4C18.2998 4.5 17.8998 4.5 17.4998 4.6C17.3998 4.6 17.2998 4.6 17.1998 4.7C16.8998 4.7 16.5998 4.8 16.2998 4.9C15.8998 4.9 15.4998 5 14.9998 5.1C14.7998 5.2 14.4998 5.2 14.2998 5.3C13.9998 5.4 13.4998 5.5 13.0998 5.6C9.39976 6.8 6.89976 8.5 5.49976 9.6C4.69976 10.3 4.19976 11.2 3.99976 12.2C3.99976 12.3 3.99976 12.4 3.99976 12.5C3.99976 12.6 3.99976 12.7 3.99976 12.8V21.2C3.99976 22.4 4.49976 23.5 5.49976 24.3C7.99976 26.4 13.8998 30 23.9998 30C34.0998 30 39.9998 26.4 42.4998 24.3C43.3998 23.5 43.9998 22.4 43.9998 21.2V12.8C43.9998 12.7 43.9998 12.6 43.9998 12.5C43.8998 11.4 43.3998 10.4 42.5998 9.7C40.6998 8.2 37.0998 5.9 31.2998 4.7C30.8998 4.6 30.4998 4.5 30.0998 4.5C28.1998 4.2 26.1998 4 23.9998 4Z" fill="#FFBB00"/>
    <path d="M20.0002 2C22.0002 2 23.9002 2.1 25.8002 2.4C26.1002 2.4 26.3002 2.5 26.6002 2.5L26.9002 2.6C32.4002 3.7 35.8002 5.9 37.3002 7.2C37.7002 7.5 37.9002 8 38.0002 8.6V8.7V8.8V17.3C38.0002 17.9 37.7002 18.5 37.3002 18.8C34.9002 20.7 29.4002 24 20.0002 24C10.6002 24 5.10024 20.7 2.70024 18.8C2.30024 18.4 2.00024 17.9 2.00024 17.3V8.8C2.00024 8.7 2.00024 8.7 2.00024 8.7V8.5V8.4C2.10024 7.9 2.30024 7.5 2.70024 7.2C4.00024 6.1 6.30024 4.6 9.70024 3.5C10.1002 3.4 10.4002 3.3 10.8002 3.2C11.0002 3.1 11.2002 3.1 11.4002 3C11.8002 2.9 12.2002 2.8 12.6002 2.7C12.9002 2.6 13.1002 2.6 13.4002 2.5H13.7002C14.1002 2.4 14.5002 2.4 14.9002 2.3C15.1002 2.3 15.3002 2.3 15.4002 2.2C15.9002 2.1 16.4002 2.1 16.9002 2.1H17.0002H17.2002C18.0002 2 18.5002 2 19.0002 2C19.3002 2 19.7002 2 20.0002 2ZM20.0002 0C19.6002 0 19.3002 0 18.9002 0C18.3002 0 17.8002 0 17.2002 0.1C17.1002 0.1 17.0002 0.1 16.9002 0.1C16.3002 0.1 15.8002 0.2 15.2002 0.3C15.0002 0.3 14.9002 0.3 14.7002 0.4C14.3002 0.5 13.9002 0.5 13.5002 0.6C13.4002 0.6 13.3002 0.6 13.2002 0.7C12.9002 0.7 12.6002 0.8 12.3002 0.9C11.9002 0.9 11.5002 1 11.0002 1.1C10.8002 1.2 10.5002 1.2 10.3002 1.3C10.0002 1.4 9.50024 1.5 9.10024 1.6C5.40024 2.8 2.90024 4.5 1.50024 5.6C0.700244 6.3 0.200244 7.2 0.000244141 8.2C0.000244141 8.3 0.000244141 8.4 0.000244141 8.5C0.000244141 8.6 0.000244141 8.7 0.000244141 8.8V17.2C0.000244141 18.4 0.500244 19.5 1.50024 20.3C4.00024 22.4 9.90024 26 20.0002 26C30.1002 26 36.0002 22.4 38.5002 20.3C39.4002 19.5 40.0002 18.4 40.0002 17.2V8.8C40.0002 8.7 40.0002 8.6 40.0002 8.5C39.9002 7.4 39.4002 6.4 38.6002 5.7C36.7002 4.2 33.1002 1.9 27.3002 0.7C26.9002 0.6 26.5002 0.5 26.1002 0.5C24.2002 0.2 22.2002 0 20.0002 0Z" fill="black"/>
    <path d="M20.0002 2C22.0002 2 23.9002 2.1 25.8002 2.4C26.1002 2.4 26.3002 2.5 26.6002 2.5L26.9002 2.6C32.4002 3.7 35.8002 5.9 37.3002 7.2C37.6002 7.5 37.9002 7.9 38.0002 8.3C38.0002 8.4 37.9002 8.5 37.7002 8.7C37.4002 9.1 37.0002 9.4 36.6002 9.8C35.8002 10.5 34.9002 11.4 34.3002 12.7C33.8002 13.7 32.9002 14.9 31.8002 15.1H31.7002C31.6002 15.1 31.4002 15.1 31.0002 14.8L30.9002 14.7C30.3002 14.3 29.3002 13.7 28.2002 13.7C27.7002 13.7 27.3002 13.8 26.8002 14C26.1002 14.3 25.7002 14.8 25.5002 15.1C25.5002 15.1 25.5002 15.1 25.4002 15.2C24.7002 16.1 23.5002 17.1 21.9002 17.1C21.2002 17.1 20.4002 16.9 19.6002 16.4C19.5002 16.4 19.4002 16.3 19.3002 16.3C19.0002 16.2 18.8002 16.1 18.6002 16.1C18.1002 16 17.6002 15.9 17.1002 15.9C16.6002 15.9 16.1002 16 15.6002 16.1C15.0002 16.3 14.4002 16.5 14.0002 16.8C13.6002 17 13.3002 17.2 13.0002 17.2C12.9002 17.2 12.7002 17.2 12.5002 17.2C11.8002 17.2 11.2002 17 10.9002 16.6C10.7002 16.4 10.5002 16.1 10.4002 15.8C10.1002 15.3 9.70024 14.7 9.20024 14.1C8.50024 13.4 7.50024 12.9 6.30024 12.7C6.00024 12.7 5.70024 12.6 5.40024 12.6C5.20024 12.6 5.10024 12.6 4.90024 12.6C4.80024 12.6 4.70024 12.6 4.60024 12.6C4.50024 12.6 4.40024 12.6 4.30024 12.6C3.90024 12.5 3.60024 12.3 3.30024 12.1C2.80024 11.7 2.40024 11.2 2.20024 10.5C2.10024 10.1 2.00024 9.4 2.00024 8.8C2.00024 8.7 2.00024 8.7 2.00024 8.7V8.5V8.4C2.10024 7.9 2.30024 7.5 2.70024 7.2C4.00024 6.1 6.30024 4.6 9.70024 3.5C10.1002 3.4 10.4002 3.3 10.8002 3.2C11.0002 3.1 11.2002 3.1 11.4002 3C11.8002 2.9 12.2002 2.8 12.6002 2.7C12.9002 2.6 13.1002 2.6 13.4002 2.5C13.4002 2.5 13.4002 2.5 13.5002 2.5H13.8002C14.2002 2.4 14.6002 2.4 15.0002 2.3C15.2002 2.3 15.4002 2.3 15.5002 2.2C16.0002 2.1 16.5002 2.1 17.0002 2.1H17.1002H17.3002C18.0002 2 18.5002 2 19.0002 2C19.3002 2 19.7002 2 20.0002 2ZM20.0002 0C19.6002 0 19.3002 0 18.9002 0C18.3002 0 17.8002 0 17.2002 0.1C17.1002 0.1 17.0002 0.1 16.9002 0.1C16.3002 0.1 15.8002 0.2 15.2002 0.3C15.0002 0.3 14.9002 0.3 14.7002 0.4C14.3002 0.5 13.9002 0.5 13.5002 0.6C13.4002 0.6 13.3002 0.6 13.2002 0.7C12.9002 0.7 12.6002 0.8 12.3002 0.9C11.9002 0.9 11.5002 1 11.0002 1.1C10.8002 1.2 10.5002 1.2 10.3002 1.3C10.0002 1.4 9.50024 1.5 9.10024 1.6C5.40024 2.8 2.90024 4.5 1.50024 5.6C0.700244 6.3 0.200244 7.2 0.000244141 8.2C0.000244141 8.3 0.000244141 8.4 0.000244141 8.5C0.000244141 8.6 0.000244141 8.7 0.000244141 8.8C0.000244141 9.7 0.200244 10.6 0.500244 11.4C0.900244 12.3 1.50024 13.1 2.20024 13.8C2.70024 14.3 3.40024 14.6 4.00024 14.7C4.20024 14.8 4.50024 14.8 4.70024 14.8C5.00024 14.8 5.20024 14.8 5.50024 14.8C5.70024 14.8 5.90024 14.8 6.10024 14.8C6.80024 14.9 7.40024 15.2 7.90024 15.7C8.60024 16.4 8.90024 17.4 9.60024 18.1C10.4002 18.9 11.5002 19.3 12.7002 19.3C13.0002 19.3 13.2002 19.3 13.5002 19.2C14.5002 19 15.4002 18.3 16.4002 18.1C16.7002 18 17.0002 18 17.3002 18C17.6002 18 18.0002 18 18.3002 18.1C18.5002 18.1 18.6002 18.2 18.8002 18.2C19.9002 18.8 21.0002 19.1 22.1002 19.1C24.1002 19.1 25.8002 18.1 27.1002 16.4C27.3002 16.2 27.5002 16 27.7002 15.8C27.9002 15.7 28.0002 15.7 28.2002 15.7C28.8002 15.7 29.5002 16.1 30.0002 16.4C30.5002 16.7 31.1002 17 31.7002 17C31.8002 17 32.0002 17 32.1002 17C33.9002 16.7 35.3002 15 36.1002 13.5C36.8002 12 38.2002 11.2 39.2002 10C39.6002 9.5 39.9002 9 39.9002 8.4C39.8002 7.3 39.3002 6.3 38.5002 5.6C36.6002 4.1 33.0002 1.8 27.2002 0.6C26.8002 0.5 26.4002 0.4 26.0002 0.4C24.2002 0.2 22.2002 0 20.0002 0Z" fill="black"/>
    <path d="M20.0002 10.8C23.314 10.8 26.0002 9.90456 26.0002 8.79999C26.0002 7.69542 23.314 6.79999 20.0002 6.79999C16.6865 6.79999 14.0002 7.69542 14.0002 8.79999C14.0002 9.90456 16.6865 10.8 20.0002 10.8Z" stroke="black" stroke-width="2" stroke-miterlimit="10"/>
    </svg>