<svg width="44" height="30" viewBox="0 0 44 30" fill="none" xmlns="http://www.w3.org/2000/svg">
    <path fill-rule="evenodd" clip-rule="evenodd" d="M6.01342 7.91754C6.20365 5.85985 7.92996 4.28577 9.99643 4.28577H13.6535C15.1165 4.28577 16.5726 4.48643 17.9811 4.88215L19.8513 5.40757C22.6816 6.20275 25.6763 6.20275 28.5066 5.40757L30.3767 4.88215C31.7852 4.48643 33.2414 4.28577 34.7044 4.28577H38.3614C40.4279 4.28577 42.1542 5.85985 42.3444 7.91754L43.9821 25.6318C44.1989 27.9764 42.3537 30.0001 39.9991 30.0001H37.6122C36.0624 30.0001 34.7676 28.8195 34.625 27.2762C34.5024 25.9509 33.669 24.7969 32.4494 24.2639L30.5863 23.4496C26.5013 21.6643 21.8566 21.6643 17.7716 23.4496L15.9085 24.2639C14.6888 24.7969 13.8554 25.9508 13.7329 27.2762C13.5902 28.8195 12.2955 30.0001 10.7456 30.0001H8.35874C6.00418 30.0001 4.15896 27.9764 4.37572 25.6318L6.01342 7.91754Z" fill="#CA79D2"/>
    <mask id="path-2-inside-1" fill="white">
    <path fill-rule="evenodd" clip-rule="evenodd" d="M1.65502 3.63177C1.84525 1.57408 3.57156 0 5.63803 0H9.29506C10.7581 0 12.2142 0.200664 13.6227 0.596383L15.4929 1.12181C18.3232 1.91698 21.3179 1.91698 24.1482 1.12181L26.0183 0.596382C27.4268 0.200664 28.883 0 30.346 0H34.003C36.0695 0 37.7958 1.57408 37.986 3.63177L39.6237 21.3461C39.8405 23.6906 37.9953 25.7143 35.6407 25.7143H33.2538C31.704 25.7143 30.4092 24.5337 30.2666 22.9905C30.144 21.6651 29.3106 20.5111 28.091 19.9781L26.2279 19.1639C22.1429 17.3786 17.4982 17.3786 13.4132 19.1639L11.5501 19.9781C10.3304 20.5111 9.49703 21.6651 9.3745 22.9905C9.23182 24.5337 7.93709 25.7143 6.38723 25.7143H4.00034C1.64578 25.7143 -0.199434 23.6906 0.0173216 21.3461L1.65502 3.63177Z"/>
    </mask>
    <path d="M1.65502 3.63177L-0.336491 3.44766L1.65502 3.63177ZM37.986 3.63177L39.9775 3.44766V3.44766L37.986 3.63177ZM39.6237 21.3461L37.6322 21.5302V21.5302L39.6237 21.3461ZM26.2279 19.1639L27.0288 17.3312L26.2279 19.1639ZM13.4132 19.1639L14.2141 20.9965H14.2141L13.4132 19.1639ZM0.0173216 21.3461L-1.97419 21.1619L0.0173216 21.3461ZM28.091 19.9781L28.8919 18.1455L28.091 19.9781ZM11.5501 19.9781L10.7492 18.1455L11.5501 19.9781ZM24.1482 1.12181L24.6891 3.04726L24.1482 1.12181ZM5.63803 -2C2.53833 -2 -0.0511384 0.361119 -0.336491 3.44766L3.64652 3.81589C3.74164 2.78704 4.6048 2 5.63803 2V-2ZM9.29506 -2H5.63803V2H9.29506V-2ZM13.0818 2.52184L14.9519 3.04726L16.0338 -0.803645L14.1637 -1.32907L13.0818 2.52184ZM24.6891 3.04726L26.5593 2.52183L25.4774 -1.32907L23.6072 -0.803645L24.6891 3.04726ZM30.346 2H34.003V-2H30.346V2ZM34.003 2C35.0363 2 35.8994 2.78704 35.9945 3.81589L39.9775 3.44766C39.6922 0.36112 37.1027 -2 34.003 -2V2ZM35.9945 3.81589L37.6322 21.5302L41.6152 21.1619L39.9775 3.44766L35.9945 3.81589ZM37.6322 21.5302C37.7406 22.7024 36.818 23.7143 35.6407 23.7143V27.7143C39.1726 27.7143 41.9404 24.6788 41.6152 21.1619L37.6322 21.5302ZM35.6407 23.7143H33.2538V27.7143H35.6407V23.7143ZM33.2538 23.7143C32.7372 23.7143 32.3056 23.3208 32.2581 22.8063L28.2751 23.1746C28.5128 25.7467 30.6707 27.7143 33.2538 27.7143V23.7143ZM28.8919 18.1455L27.0288 17.3312L25.427 20.9965L27.2901 21.8107L28.8919 18.1455ZM27.0288 17.3312C22.4332 15.3228 17.2079 15.3228 12.6122 17.3312L14.2141 20.9965C17.7885 19.4344 21.8526 19.4344 25.427 20.9965L27.0288 17.3312ZM12.6122 17.3312L10.7492 18.1455L12.351 21.8107L14.2141 20.9965L12.6122 17.3312ZM6.38723 27.7143C8.97032 27.7143 11.1282 25.7467 11.366 23.1746L7.38299 22.8063C7.33543 23.3208 6.90385 23.7143 6.38723 23.7143V27.7143ZM4.00034 27.7143H6.38723V23.7143H4.00034V27.7143ZM-1.97419 21.1619C-2.29932 24.6788 0.468498 27.7143 4.00034 27.7143V23.7143C2.82306 23.7143 1.90045 22.7024 2.00883 21.5302L-1.97419 21.1619ZM-0.336491 3.44766L-1.97419 21.1619L2.00883 21.5302L3.64652 3.81589L-0.336491 3.44766ZM32.2581 22.8063C32.0685 20.7557 30.779 18.9702 28.8919 18.1455L27.2901 21.8107C27.8423 22.0521 28.2196 22.5745 28.2751 23.1746L32.2581 22.8063ZM10.7492 18.1455C8.86207 18.9702 7.57258 20.7557 7.38299 22.8063L11.366 23.1746C11.4215 22.5745 11.7988 22.0521 12.351 21.8107L10.7492 18.1455ZM26.5593 2.52183C27.7917 2.17558 29.0658 2 30.346 2V-2C28.7001 -2 27.062 -1.77425 25.4774 -1.32907L26.5593 2.52183ZM14.9519 3.04726C18.136 3.94183 21.505 3.94183 24.6891 3.04726L23.6072 -0.803645C21.1307 -0.107866 18.5104 -0.107865 16.0338 -0.803645L14.9519 3.04726ZM9.29506 2C10.5752 2 11.8493 2.17558 13.0818 2.52184L14.1637 -1.32907C12.5791 -1.77425 10.941 -2 9.29506 -2V2Z" fill="#292929" mask="url(#path-2-inside-1)"/>
    <path fill-rule="evenodd" clip-rule="evenodd" d="M9.46948 8.03572C9.46948 7.44399 9.9573 6.96429 10.5591 6.96429C11.1608 6.96429 11.6487 7.44399 11.6487 8.03572V9.10715L12.7383 9.10715C13.34 9.10715 13.8279 9.58685 13.8279 10.1786C13.8279 10.7703 13.34 11.25 12.7383 11.25H11.6487V12.3214C11.6487 12.9132 11.1608 13.3929 10.5591 13.3929C9.9573 13.3929 9.46948 12.9132 9.46948 12.3214V11.25H8.37988C7.77811 11.25 7.29028 10.7703 7.29028 10.1786C7.29028 9.58685 7.77811 9.10715 8.37988 9.10715H9.46948V8.03572Z" fill="#292929"/>
    <path fill-rule="evenodd" clip-rule="evenodd" d="M25.8132 10.1785C25.8132 9.58681 26.3011 9.10712 26.9028 9.10712C27.5046 9.10712 27.9924 9.58681 27.9924 10.1785C27.9924 10.7703 27.5046 11.25 26.9028 11.25C26.3011 11.25 25.8132 10.7703 25.8132 10.1785Z" fill="#292929"/>
    <path fill-rule="evenodd" clip-rule="evenodd" d="M27.9924 8.03572C27.9924 7.44399 28.4803 6.96429 29.082 6.96429C29.6838 6.96429 30.1716 7.44399 30.1716 8.03572C30.1716 8.62746 29.6838 9.10715 29.082 9.10715C28.4803 9.10715 27.9924 8.62746 27.9924 8.03572Z" fill="#292929"/>
    <path fill-rule="evenodd" clip-rule="evenodd" d="M30.1716 10.1786C30.1716 9.58687 30.6595 9.10718 31.2612 9.10718C31.863 9.10718 32.3508 9.58687 32.3508 10.1786C32.3508 10.7703 31.863 11.25 31.2612 11.25C30.6595 11.25 30.1716 10.7703 30.1716 10.1786Z" fill="#292929"/>
    <path fill-rule="evenodd" clip-rule="evenodd" d="M27.9924 12.3214C27.9924 11.7297 28.4803 11.25 29.082 11.25C29.6838 11.25 30.1716 11.7297 30.1716 12.3214C30.1716 12.9132 29.6838 13.3929 29.082 13.3929C28.4803 13.3929 27.9924 12.9132 27.9924 12.3214Z" fill="#292929"/>
    </svg>