<svg width="44" height="30" viewBox="0 0 44 30" fill="none" xmlns="http://www.w3.org/2000/svg">
    <path d="M40 29.9985H11.6311C9.53387 29.9985 8.85067 27.1815 10.7149 26.2208L41.0838 10.5696C42.4149 9.88358 44 10.8499 44 12.3474V25.9985C44 28.2077 42.2091 29.9985 40 29.9985Z" fill="#FFBB00"/>
    <path d="M21.2293 4.31189C22.028 3.21419 23.6649 3.21419 24.4636 4.31189L35.5388 19.5326L39.7725 27.0135C40.527 28.3467 39.5639 29.9985 38.0319 29.9985H9.79115C8.35831 29.9985 7.39029 28.5361 7.95012 27.2171L12.6033 16.2544C12.6626 16.1146 12.7377 15.9819 12.8271 15.8591L21.2293 4.31189Z" fill="#FFBB00"/>
    <path d="M7.38477 29.9985H39.8769C40.9255 29.9985 41.2671 28.59 40.335 28.1096L6.30098 10.5696C4.9699 9.88358 3.38477 10.8499 3.38477 12.3474V25.9985C3.38477 28.2077 5.17563 29.9985 7.38477 29.9985Z" fill="#FFBB00"/>
    <path d="M37.0631 26H4C2.34315 26 1 24.6569 1 23V8.58489C1 7.83572 1.79342 7.35258 2.45901 7.69646L37.1549 25.6223C37.2248 25.6585 37.2435 25.6932 37.2519 25.7135C37.2643 25.7434 37.2711 25.791 37.2574 25.8472C37.2437 25.9035 37.2159 25.9426 37.1911 25.9635C37.1743 25.9777 37.1418 26 37.0631 26Z" stroke="#292929" stroke-width="2"/>
    <mask id="path-5-inside-1" fill="white">
    <path fill-rule="evenodd" clip-rule="evenodd" d="M18.6905 0.823274C19.4893 -0.274425 21.1262 -0.274425 21.9249 0.823274L29.686 11.4895L38.0738 7.10697C39.4053 6.41123 40.9999 7.37721 40.9999 8.87959V23C40.9999 25.1782 39.259 26.9497 37.0927 26.999C37.0337 26.7385 36.8669 26.4969 36.5735 26.3457L10.0615 12.6823L10.1539 12.5553L18.6905 0.823274Z"/>
    </mask>
    <path d="M21.9249 0.823274L20.3077 2V2L21.9249 0.823274ZM18.6905 0.823274L20.3077 2V2L18.6905 0.823274ZM29.686 11.4895L28.0688 12.6662L29.0836 14.0608L30.6122 13.2621L29.686 11.4895ZM38.0738 7.10697L37.1476 5.33434L38.0738 7.10697ZM37.0927 26.999L35.1421 27.4406L35.5032 29.0356L37.1382 28.9984L37.0927 26.999ZM36.5735 26.3457L35.6573 28.1235L36.5735 26.3457ZM10.0615 12.6823L8.44433 11.5055L7.072 13.3915L9.14531 14.46L10.0615 12.6823ZM10.1539 12.5553L11.7711 13.7321L11.7711 13.7321L10.1539 12.5553ZM23.5421 -0.353452C21.9447 -2.54885 18.6708 -2.54885 17.0733 -0.353452L20.3077 2L20.3077 2L23.5421 -0.353452ZM31.3032 10.3127L23.5421 -0.353452L20.3077 2L28.0688 12.6662L31.3032 10.3127ZM37.1476 5.33434L28.7598 9.71684L30.6122 13.2621L38.9999 8.87959L37.1476 5.33434ZM42.9999 8.87959C42.9999 5.87483 39.8107 3.94288 37.1476 5.33434L38.9999 8.87959V8.87959H42.9999ZM42.9999 23V8.87959H38.9999V23H42.9999ZM37.1382 28.9984C40.3885 28.9245 42.9999 26.2675 42.9999 23H38.9999C38.9999 24.0888 38.1294 24.9749 37.0472 24.9995L37.1382 28.9984ZM39.0433 26.5573C38.8569 25.7342 38.3208 24.9962 37.4897 24.5679L35.6573 28.1235C35.5506 28.0685 35.4336 27.9784 35.3338 27.8482C35.2355 27.72 35.1732 27.5783 35.1421 27.4406L39.0433 26.5573ZM37.4897 24.5679L10.9777 10.9045L9.14531 14.46L35.6573 28.1235L37.4897 24.5679ZM8.53669 11.3786L8.44433 11.5055L11.6787 13.859L11.7711 13.7321L8.53669 11.3786ZM17.0733 -0.353453L8.53668 11.3786L11.7711 13.7321L20.3077 2L17.0733 -0.353453Z" fill="#292929" mask="url(#path-5-inside-1)"/>
    </svg>