<svg width="8" height="15" viewBox="0 0 8 15" fill="none" xmlns="http://www.w3.org/2000/svg">
    <path fill-rule="evenodd" clip-rule="evenodd" d="M1.66672 0.111115C1.11444 0.111115 0.66672 0.55883 0.66672 1.11111V1.48148C0.66672 2.03377 1.11444 2.48148 1.66672 2.48148H3.03709V11.963H1.8519C1.19735 11.963 0.66672 12.4936 0.66672 13.1482C0.66672 13.8027 1.19735 14.3333 1.85191 14.3333H3.03709H5.40746L6.59265 14.3333C7.24721 14.3333 7.77783 13.8027 7.77783 13.1482C7.77783 12.4936 7.24721 11.963 6.59265 11.963H5.40746V2.48148H6.77783C7.33012 2.48148 7.77783 2.03377 7.77783 1.48148V1.11111C7.77783 0.55883 7.33012 0.111115 6.77783 0.111115H5.40746H3.03709H1.66672Z" fill="#292929"/>
    </svg>