<svg width="18" height="15" viewBox="0 0 18 15" fill="none" xmlns="http://www.w3.org/2000/svg">
    <path fill-rule="evenodd" clip-rule="evenodd" d="M1.92596 0.111115C1.37368 0.111115 0.925962 0.55883 0.925962 1.11111V1.48148C0.925962 2.03377 1.37368 2.48148 1.92596 2.48148H3.29633V11.963H2.11115C1.45659 11.963 0.925962 12.4936 0.925962 13.1482C0.925962 13.8027 1.45659 14.3333 2.11115 14.3333L3.29633 14.3333H5.6667H8.03707H10.4074H12.7778H15.1482L16.3334 14.3333C16.9879 14.3333 17.5186 13.8027 17.5186 13.1482C17.5186 12.4936 16.9879 11.963 16.3334 11.963H15.1482V2.48148H16.5186C17.0708 2.48148 17.5186 2.03377 17.5186 1.48148V1.11111C17.5186 0.55883 17.0708 0.111115 16.5186 0.111115H15.1482H12.7778H10.4074H8.03707H5.6667H3.29633H1.92596ZM12.7778 11.963H10.4074V2.48148H12.7778V11.963ZM8.03707 11.963H5.6667V2.48148H8.03707V11.963Z" fill="#292929"/>
    </svg>