<svg width="13" height="15" viewBox="0 0 13 15" fill="none" xmlns="http://www.w3.org/2000/svg">
    <path fill-rule="evenodd" clip-rule="evenodd" d="M1.29634 0.111115C0.744058 0.111115 0.296342 0.55883 0.296342 1.11111V1.48148C0.296342 2.03377 0.744058 2.48148 1.29634 2.48148H2.66671V11.963H1.48153C0.826968 11.963 0.296342 12.4936 0.296342 13.1482C0.296342 13.8027 0.826967 14.3333 1.48153 14.3333H2.66671H5.03708H7.40745H9.77782L10.963 14.3333C11.6176 14.3333 12.1482 13.8027 12.1482 13.1482C12.1482 12.4936 11.6176 11.963 10.963 11.963H9.77782V2.48148H11.1482C11.7005 2.48148 12.1482 2.03377 12.1482 1.48148V1.11111C12.1482 0.55883 11.7005 0.111115 11.1482 0.111115H9.77782H7.40745H5.03708H2.66671H1.29634ZM7.40745 11.963H5.03708V2.48148L7.40745 2.48148V11.963Z" fill="#292929"/>
    </svg>